<svg width="22" height="16" viewBox="0 0 22 16" fill="none" xmlns="http://www.w3.org/2000/svg">
<path d="M4.40351 4.12256C3.80189 4.12256 3.16797 4.59965 3.16797 5.45188C3.16797 6.25518 3.70499 6.65071 4.242 6.65071C4.84362 6.65071 5.46139 6.18994 5.46139 5.3377C5.46139 4.48547 4.94053 4.12256 4.40351 4.12256Z" fill="#007B5F"/>
<path d="M11.3 0C5.99853 0 0.600098 3.0868 0.600098 7.81689C0.600098 12.547 5.99853 15.6338 11.3 15.6338C16.6016 15.6338 22 12.547 22 7.81689C22 3.0868 16.5975 0 11.3 0ZM3.25288 11.6744C2.19903 10.606 1.54492 9.29301 1.54492 7.81689C1.54492 7.62116 1.56107 7.42136 1.57723 7.23786C2.09809 7.61709 2.65126 7.9066 3.25288 8.06563V11.6784V11.6744ZM1.90428 5.99825C2.90563 3.42524 5.77241 1.75748 8.74417 1.21515C7.43999 2.45476 6.66475 4.57107 6.48305 6.39786C5.81683 6.77709 5.12234 7.00951 4.40363 7.00951C3.4911 7.00951 2.65126 6.67922 1.90428 5.99825ZM5.06985 13.0689V8.15942C5.52611 8.09825 5.96622 7.94738 6.4023 7.74757V7.81689C6.4023 10.606 7.34712 13.0689 8.74417 14.4349C7.42788 14.1781 6.16407 13.7132 5.06985 13.073V13.0689ZM9.93126 14.2025C8.42116 13.2647 7.34712 10.7365 7.34712 7.81689V7.6701C8.12236 8.00854 9.09142 8.2165 9.93126 8.3266V14.2025ZM7.42788 6.41825C7.73071 3.78815 9.20044 1.01942 11.3 1.01942C13.3997 1.01942 14.8694 3.79223 15.1722 6.41825C13.9851 6.97689 12.576 7.30718 11.3 7.30718C10.0241 7.30718 8.61497 6.98097 7.42788 6.41825ZM12.6648 14.2025V8.34291C13.5087 8.2165 14.4858 8.00447 15.2489 7.66194V7.81281C15.2489 10.7365 14.1749 13.2647 12.6648 14.1984V14.2025ZM17.5262 13.0689C16.432 13.7091 15.1682 14.1781 13.8519 14.4309C15.2489 13.0689 16.1938 10.606 16.1938 7.81281V7.74349C16.6298 7.9433 17.0699 8.09417 17.5262 8.15534V13.0649V13.0689ZM21.0552 7.81689C21.0552 9.29301 20.4011 10.606 19.3472 11.6744V8.06155C19.9529 7.90252 20.5101 7.60893 21.039 7.22563C21.0471 7.45806 21.0552 7.68641 21.0552 7.81689ZM18.1924 7.00951C17.4737 7.00951 16.7752 6.77709 16.113 6.39786C15.9353 4.57107 15.1561 2.45476 13.8519 1.21515C16.8277 1.75748 19.6904 3.41709 20.6958 5.99417C19.9488 6.6833 19.1009 7.01359 18.1924 7.01359V7.00951Z" fill="#007B5F"/>
<path d="M11.3 3.44971C10.4036 3.44971 9.68896 4.20408 9.68896 5.10932C9.68896 6.01456 10.4036 6.78524 11.3 6.78524C12.1964 6.78524 12.9111 6.03087 12.9111 5.10932C12.9111 4.18777 12.1964 3.44971 11.3 3.44971Z" fill="#007B5F"/>
<path d="M18.1924 4.12256C17.6554 4.12256 17.1345 4.51809 17.1345 5.3377C17.1345 6.15732 17.7523 6.65071 18.3539 6.65071C18.8909 6.65071 19.4279 6.25518 19.4279 5.45188C19.4279 4.59557 18.794 4.12256 18.1924 4.12256Z" fill="#007B5F"/>
</svg>
