<svg width="164" height="44" viewBox="0 0 164 44" fill="none" xmlns="http://www.w3.org/2000/svg">
<g clip-path="url(#clip0_6536_44041)">
<path d="M10.7075 11.6055C9.01383 11.6055 7.22925 12.9485 7.22925 15.3477C7.22925 17.6091 8.74103 18.7226 10.2528 18.7226C11.9465 18.7226 13.6856 17.4255 13.6856 15.0263C13.6856 12.6271 12.2193 11.6055 10.7075 11.6055Z" fill="white"/>
<path d="M30.122 0C15.1974 0 0 8.6898 0 22.0057C0 35.3217 15.1974 44.0115 30.122 44.0115C45.0466 44.0115 60.244 35.3217 60.244 22.0057C60.244 8.6898 45.0352 0 30.122 0ZM7.46798 32.8651C4.50125 29.8575 2.65983 26.1612 2.65983 22.0057C2.65983 21.4547 2.7053 20.8922 2.75076 20.3757C4.21708 21.4433 5.77433 22.2583 7.46798 22.706V32.8766V32.8651ZM3.67147 16.886C6.49044 9.64258 14.5609 4.94756 22.9268 3.42082C19.2553 6.91051 17.0729 12.8682 16.5614 18.011C14.6859 19.0785 12.7308 19.7328 10.7075 19.7328C8.13862 19.7328 5.77433 18.803 3.67147 16.886ZM12.583 36.791V22.97C13.8675 22.7978 15.1065 22.3731 16.3341 21.8106V22.0057C16.3341 29.8575 18.9939 36.791 22.9268 40.6366C19.2212 39.9134 15.6634 38.6047 12.583 36.8025V36.791ZM26.2686 39.9823C22.0175 37.342 18.9939 30.2249 18.9939 22.0057V21.5925C21.1763 22.5453 23.9044 23.1307 26.2686 23.4406V39.9823ZM19.2212 18.0684C20.0737 10.6642 24.2113 2.86981 30.122 2.86981C36.0327 2.86981 40.1702 10.6757 41.0227 18.0684C37.6809 19.641 33.7139 20.5708 30.122 20.5708C26.5301 20.5708 22.5631 19.6525 19.2212 18.0684ZM33.964 39.9823V23.4866C36.3396 23.1307 39.0904 22.5338 41.2387 21.5695V21.9943C41.2387 30.2249 38.2151 37.342 33.964 39.9708V39.9823ZM47.6496 36.791C44.5692 38.5933 41.0114 39.9134 37.3058 40.6251C41.2387 36.791 43.8985 29.8575 43.8985 21.9943V21.7991C45.1261 22.3616 46.3651 22.7863 47.6496 22.9585V36.7795V36.791ZM57.5841 22.0057C57.5841 26.1612 55.7427 29.8575 52.776 32.8651V22.6945C54.481 22.2468 56.0496 21.4203 57.5387 20.3412C57.5614 20.9956 57.5841 21.6384 57.5841 22.0057ZM49.5251 19.7328C47.5018 19.7328 45.5353 19.0785 43.6712 18.011C43.1711 12.8682 40.9773 6.91051 37.3058 3.42082C45.6831 4.94756 53.7422 9.61962 56.5725 16.8745C54.4696 18.8145 52.0826 19.7443 49.5251 19.7443V19.7328Z" fill="white"/>
<path d="M30.122 9.71143C27.5986 9.71143 25.5867 11.8351 25.5867 14.3835C25.5867 16.9319 27.5986 19.1015 30.122 19.1015C32.6454 19.1015 34.6574 16.9778 34.6574 14.3835C34.6574 11.7892 32.6454 9.71143 30.122 9.71143Z" fill="white"/>
<path d="M49.5251 11.6055C48.0133 11.6055 46.547 12.719 46.547 15.0263C46.547 17.3336 48.2861 18.7226 49.9798 18.7226C51.4915 18.7226 53.0033 17.6091 53.0033 15.3477C53.0033 12.9371 51.2187 11.6055 49.5251 11.6055Z" fill="white"/>
<path d="M163.261 34.7593C160.556 34.5642 159.624 32.0158 159.533 31.7173L150.985 8.75879H147.154L147.495 9.91819L140.084 31.9584C140.039 32.1535 139.937 32.1994 139.789 32.1994C139.55 32.1994 139.209 31.9584 138.811 31.5107C136.754 29.2033 134.515 25.5185 133.151 23.1423C133.151 23.0964 133.105 23.039 133.105 22.9472C133.105 22.752 133.355 22.4535 133.594 22.3502C136.265 21.1105 137.299 18.9409 137.299 16.117C137.299 10.0904 131.593 8.78175 126.535 8.78175H116.771V10.0904C119.419 10.4348 120.499 11.0776 120.499 12.9487V31.35C120.499 33.554 119.476 34.6445 116.771 34.7823V35.8728H128.945V34.7823C124.046 34.633 124.046 32.2798 124.046 31.35V24.1295H125.512C126.74 24.1295 127.82 24.1295 128.843 23.877C129.331 23.877 129.388 24.0262 129.581 24.2787C133.696 30.8104 136.958 36.2746 142.846 36.2746C143.381 36.2746 143.926 36.2287 145.984 35.8843V34.7937C142.596 34.7937 141.96 33.7147 141.96 32.8767C141.96 32.5323 142.005 32.188 142.108 31.8895L144.563 24.5198H153.054L155.6 31.6943C155.748 32.0387 155.805 32.2798 155.805 32.5323C155.805 33.9098 154.918 34.6445 151.781 34.7937V35.8843H164.011V34.7937L163.273 34.7478L163.261 34.7593ZM126.24 23.1079H124.034V9.87228H126.535C131.787 9.87228 133.503 13.4194 133.503 16.691C133.503 20.2495 131.002 23.1193 126.251 23.1193L126.24 23.1079ZM145.245 22.5109L148.541 12.3288L152.269 22.5109H145.245Z" fill="white"/>
<path d="M100.141 9.04551L88.3427 9.19474V10.159C91.0934 10.5034 92.071 11.2381 92.071 13.465V31.8089C92.071 34.2195 91.1844 34.5065 90.7524 34.5065C89.8658 34.5065 88.7973 33.3241 88.2517 31.8089L79.5789 8.79297H75.8506L76.1916 9.90646L68.8827 31.3153C68.2007 33.3241 66.5298 34.6557 64.1769 34.805V35.8955H74.5207V34.805C71.3834 34.7131 70.7014 33.5767 70.7014 32.4976C70.7014 32.1073 70.8037 31.6711 70.9515 31.3727L73.1566 24.5425H81.6817L84.2847 31.4645C84.4325 31.8548 84.5348 32.2451 84.5348 32.5895C84.5348 33.967 83.2049 34.805 80.4655 34.805V35.8955H103.642C109.894 35.8955 117.612 29.7426 117.612 22.901C117.612 17.2647 114.611 9.03403 100.153 9.03403L100.141 9.04551ZM73.8386 22.5107L77.226 12.4778L80.9429 22.5107H73.8386ZM101.324 34.8509C97.5384 34.8509 95.5151 34.3573 95.5151 31.8089V10.2508L100.335 10.159C110.963 10.159 113.372 16.9777 113.372 23.1535C113.372 32.3025 106.382 34.8624 101.312 34.8624L101.324 34.8509Z" fill="white"/>
</g>
<defs>
<clipPath id="clip0_6536_44041">
<rect width="164" height="44" fill="white"/>
</clipPath>
</defs>
</svg>
