<svg width="21" height="21" viewBox="0 0 21 21" fill="none" xmlns="http://www.w3.org/2000/svg">
<g clip-path="url(#clip0_7360_24082)">
<path d="M7.0625 17.375H8V19.25H7.0625H1.4375H0.5V18.3125V2.6875V1.75H1.4375H7.0625H8V3.625H7.0625H2.375V17.375H7.0625ZM19.7891 9.83594L20.4531 10.5L19.7891 11.1641L14.7891 16.1641L14.125 16.8281L12.8008 15.5L13.4648 14.8359L16.8633 11.4375H7.6875H6.75V9.5625H7.6875H16.8633L13.4648 6.16406L12.8008 5.5L14.125 4.17578L14.7891 4.83984L19.7891 9.83984V9.83594Z" fill="#007B5F"/>
</g>
<defs>
<clipPath id="clip0_7360_24082">
<rect width="20" height="20" fill="white" transform="matrix(1 0 0 -1 0.5 20.5)"/>
</clipPath>
</defs>
</svg>
