<svg width="15" height="15" viewBox="0 0 15 15" fill="none" xmlns="http://www.w3.org/2000/svg">
<g clip-path="url(#clip0_9545_5817)">
<path d="M13.9018 13.6892H1.09816C0.99329 13.6889 0.890283 13.6614 0.799143 13.6095C0.708003 13.5577 0.631826 13.4831 0.578011 13.3931C0.526854 13.3013 0.5 13.198 0.5 13.093C0.5 12.988 0.526854 12.8847 0.578011 12.7929L6.97985 1.5897C7.03679 1.50386 7.11408 1.43345 7.20484 1.38474C7.2956 1.33604 7.397 1.31055 7.5 1.31055C7.603 1.31055 7.7044 1.33604 7.79516 1.38474C7.88592 1.43345 7.96321 1.50386 8.02015 1.5897L14.422 12.7929C14.4731 12.8847 14.5 12.988 14.5 13.093C14.5 13.198 14.4731 13.3013 14.422 13.3931C14.3682 13.4831 14.292 13.5577 14.2009 13.6095C14.1097 13.6614 14.0067 13.6889 13.9018 13.6892ZM2.13046 12.4888H12.8695L7.5 3.09413L2.13046 12.4888Z" fill="#CC8925"/>
<path d="M7.49996 9.28789C7.34143 9.28581 7.18997 9.22192 7.07787 9.10981C6.96576 8.9977 6.90186 8.84625 6.89979 8.68771V5.88691C6.89979 5.72773 6.96302 5.57508 7.07557 5.46252C7.18813 5.34997 7.34078 5.28674 7.49996 5.28674C7.65914 5.28674 7.81179 5.34997 7.92435 5.46252C8.0369 5.57508 8.10013 5.72773 8.10013 5.88691V8.68771C8.09806 8.84625 8.03416 8.9977 7.92205 9.10981C7.80995 9.22192 7.65849 9.28581 7.49996 9.28789Z" fill="#CC8925"/>
<path d="M7.49996 11.6886C7.34143 11.6865 7.18997 11.6226 7.07787 11.5105C6.96576 11.3984 6.90186 11.2469 6.89979 11.0884V10.6883C6.89979 10.5291 6.96302 10.3765 7.07557 10.2639C7.18813 10.1513 7.34078 10.0881 7.49996 10.0881C7.65914 10.0881 7.81179 10.1513 7.92435 10.2639C8.0369 10.3765 8.10013 10.5291 8.10013 10.6883V11.0884C8.09806 11.2469 8.03416 11.3984 7.92205 11.5105C7.80995 11.6226 7.65849 11.6865 7.49996 11.6886Z" fill="#CC8925"/>
</g>
<defs>
<clipPath id="clip0_9545_5817">
<rect width="14" height="14" fill="white" transform="translate(0.5 0.5)"/>
</clipPath>
</defs>
</svg>
