<svg width="52" height="48" viewBox="0 0 52 48" fill="none" xmlns="http://www.w3.org/2000/svg">
<path d="M26 48C17.375 48 9.5 43.5 5.1875 36C0.875 28.5938 0.875 19.5 5.1875 12C9.5 4.59375 17.375 0 26 0C34.5312 0 42.4062 4.59375 46.7188 12C51.0312 19.5 51.0312 28.5938 46.7188 36C42.4062 43.5 34.5312 48 26 48ZM26 12C24.6875 12 23.75 13.0312 23.75 14.25V24.75C23.75 26.0625 24.6875 27 26 27C27.2188 27 28.25 26.0625 28.25 24.75V14.25C28.25 13.0312 27.2188 12 26 12ZM23 33C23 34.6875 24.3125 36 26 36C27.5938 36 29 34.6875 29 33C29 31.4062 27.5938 30 26 30C24.3125 30 23 31.4062 23 33Z" fill="#B30000"/>
</svg>
