<svg width="21" height="20" viewBox="0 0 21 20" fill="none" xmlns="http://www.w3.org/2000/svg">
<path d="M10.5 5C9.88193 5 9.27775 5.18328 8.76384 5.52666C8.24994 5.87004 7.8494 6.3581 7.61288 6.92911C7.37635 7.50013 7.31447 8.12847 7.43505 8.73466C7.55562 9.34085 7.85325 9.89767 8.29029 10.3347C8.72733 10.7717 9.28415 11.0694 9.89034 11.19C10.4965 11.3105 11.1249 11.2486 11.6959 11.0121C12.2669 10.7756 12.755 10.3751 13.0983 9.86116C13.4417 9.34725 13.625 8.74307 13.625 8.125C13.625 7.2962 13.2958 6.50134 12.7097 5.91529C12.1237 5.32924 11.3288 5 10.5 5ZM10.5 10C10.1292 10 9.76665 9.89003 9.45831 9.68401C9.14996 9.47798 8.90964 9.18514 8.76773 8.84253C8.62581 8.49992 8.58868 8.12292 8.66103 7.75921C8.73337 7.39549 8.91195 7.0614 9.17417 6.79917C9.4364 6.53695 9.77049 6.35837 10.1342 6.28603C10.4979 6.21368 10.8749 6.25081 11.2175 6.39273C11.5601 6.53464 11.853 6.77496 12.059 7.08331C12.265 7.39165 12.375 7.75416 12.375 8.125C12.375 8.62228 12.1775 9.09919 11.8258 9.45083C11.4742 9.80246 10.9973 10 10.5 10ZM10.5 1.25C8.67727 1.25207 6.92979 1.97706 5.64092 3.26592C4.35206 4.55479 3.62707 6.30227 3.625 8.125C3.625 10.5781 4.75859 13.1781 6.90625 15.6445C7.87127 16.759 8.95739 17.7626 10.1445 18.6367C10.2496 18.7103 10.3748 18.7498 10.5031 18.7498C10.6314 18.7498 10.7566 18.7103 10.8617 18.6367C12.0467 17.7623 13.1307 16.7587 14.0938 15.6445C16.2383 13.1781 17.375 10.5781 17.375 8.125C17.3729 6.30227 16.6479 4.55479 15.3591 3.26592C14.0702 1.97706 12.3227 1.25207 10.5 1.25ZM10.5 17.3438C9.20859 16.3281 4.875 12.5977 4.875 8.125C4.875 6.63316 5.46763 5.20242 6.52252 4.14752C7.57742 3.09263 9.00816 2.5 10.5 2.5C11.9918 2.5 13.4226 3.09263 14.4775 4.14752C15.5324 5.20242 16.125 6.63316 16.125 8.125C16.125 12.5961 11.7914 16.3281 10.5 17.3438Z" fill="#343330"/>
</svg>
