<svg width="15" height="12" viewBox="0 0 15 12" fill="none" xmlns="http://www.w3.org/2000/svg">
<path d="M14.4751 6C14.4751 6.14918 14.4158 6.29226 14.3103 6.39775C14.2049 6.50324 14.0618 6.5625 13.9126 6.5625H1.5376C1.38841 6.5625 1.24534 6.50324 1.13985 6.39775C1.03436 6.29226 0.975098 6.14918 0.975098 6C0.975098 5.85082 1.03436 5.70774 1.13985 5.60225C1.24534 5.49676 1.38841 5.4375 1.5376 5.4375H13.9126C14.0618 5.4375 14.2049 5.49676 14.3103 5.60225C14.4158 5.70774 14.4751 5.85082 14.4751 6ZM1.5376 2.0625H13.9126C14.0618 2.0625 14.2049 2.00324 14.3103 1.89775C14.4158 1.79226 14.4751 1.64918 14.4751 1.5C14.4751 1.35082 14.4158 1.20774 14.3103 1.10225C14.2049 0.996763 14.0618 0.9375 13.9126 0.9375H1.5376C1.38841 0.9375 1.24534 0.996763 1.13985 1.10225C1.03436 1.20774 0.975098 1.35082 0.975098 1.5C0.975098 1.64918 1.03436 1.79226 1.13985 1.89775C1.24534 2.00324 1.38841 2.0625 1.5376 2.0625ZM13.9126 9.9375H1.5376C1.38841 9.9375 1.24534 9.99676 1.13985 10.1023C1.03436 10.2077 0.975098 10.3508 0.975098 10.5C0.975098 10.6492 1.03436 10.7923 1.13985 10.8977C1.24534 11.0032 1.38841 11.0625 1.5376 11.0625H13.9126C14.0618 11.0625 14.2049 11.0032 14.3103 10.8977C14.4158 10.7923 14.4751 10.6492 14.4751 10.5C14.4751 10.3508 14.4158 10.2077 14.3103 10.1023C14.2049 9.99676 14.0618 9.9375 13.9126 9.9375Z" fill="black"/>
</svg>
