<svg width="15" height="16" viewBox="0 0 15 16" fill="none" xmlns="http://www.w3.org/2000/svg">
<path d="M7.34375 0.6875C5.89748 0.6875 4.48368 1.11637 3.28115 1.91988C2.07861 2.72339 1.14135 3.86544 0.587884 5.20163C0.0344184 6.53781 -0.110393 8.00811 0.171761 9.4266C0.453915 10.8451 1.15036 12.148 2.17303 13.1707C3.19571 14.1934 4.49867 14.8898 5.91716 15.172C7.33564 15.4541 8.80594 15.3093 10.1421 14.7559C11.4783 14.2024 12.6204 13.2651 13.4239 12.0626C14.2274 10.8601 14.6563 9.44628 14.6563 8C14.6542 6.06123 13.8831 4.20246 12.5122 2.83154C11.1413 1.46063 9.28252 0.689547 7.34375 0.6875ZM3.5525 12.8867C3.95943 12.2503 4.52001 11.7266 5.18257 11.3638C5.84514 11.001 6.58837 10.8109 7.34375 10.8109C8.09914 10.8109 8.84237 11.001 9.50493 11.3638C10.1675 11.7266 10.7281 12.2503 11.135 12.8867C10.051 13.7298 8.71697 14.1875 7.34375 14.1875C5.97053 14.1875 4.63649 13.7298 3.5525 12.8867ZM5.09375 7.4375C5.09375 6.99249 5.22571 6.55748 5.47295 6.18747C5.72018 5.81746 6.07158 5.52907 6.48272 5.35877C6.89385 5.18847 7.34625 5.14392 7.78271 5.23073C8.21916 5.31755 8.62008 5.53184 8.93474 5.84651C9.24941 6.16118 9.4637 6.56209 9.55052 6.99855C9.63734 7.435 9.59278 7.8874 9.42248 8.29854C9.25218 8.70967 8.9638 9.06107 8.59379 9.30831C8.22378 9.55554 7.78876 9.6875 7.34375 9.6875C6.74702 9.6875 6.17472 9.45045 5.75276 9.02849C5.33081 8.60653 5.09375 8.03424 5.09375 7.4375ZM11.9675 12.107C11.3402 11.1979 10.458 10.4946 9.43203 10.0855C9.98315 9.65139 10.3853 9.05636 10.5826 8.38313C10.7798 7.7099 10.7624 6.99192 10.5327 6.32906C10.303 5.66619 9.87246 5.09137 9.30093 4.68455C8.72939 4.27772 8.04529 4.05911 7.34375 4.05911C6.64221 4.05911 5.95811 4.27772 5.38658 4.68455C4.81504 5.09137 4.38449 5.66619 4.15479 6.32906C3.92509 6.99192 3.90766 7.7099 4.10493 8.38313C4.3022 9.05636 4.70435 9.65139 5.25547 10.0855C4.22948 10.4946 3.34735 11.1979 2.72 12.107C1.92728 11.2155 1.40915 10.1139 1.228 8.93481C1.04686 7.7557 1.21043 6.54938 1.69901 5.46108C2.18759 4.37279 2.98035 3.44894 3.98183 2.80077C4.98332 2.1526 6.15082 1.80775 7.34375 1.80775C8.53669 1.80775 9.70419 2.1526 10.7057 2.80077C11.7072 3.44894 12.4999 4.37279 12.9885 5.46108C13.4771 6.54938 13.6406 7.7557 13.4595 8.93481C13.2784 10.1139 12.7602 11.2155 11.9675 12.107Z" fill="#6D6D6D"/>
</svg>
