<svg width="19" height="18" viewBox="0 0 19 18" fill="none" xmlns="http://www.w3.org/2000/svg">
<g clip-path="url(#clip0_2854_1674)">
<path d="M16.0937 5.45825L9.71873 8.99992M9.71873 8.99992L3.34373 5.45825M9.71873 8.99992L9.71875 16.1249M9.56766 16.3766C9.45503 16.3534 9.34868 16.2943 9.13598 16.1762L3.58598 13.0928C3.36134 12.968 3.24901 12.9056 3.16722 12.8169C3.09487 12.7384 3.04011 12.6453 3.00661 12.5439C2.96875 12.4293 2.96875 12.3008 2.96875 12.0439V5.95603C2.96875 5.69904 2.96875 5.57055 3.00661 5.45595C3.04011 5.35457 3.09487 5.26151 3.16722 5.18299C3.24901 5.09424 3.36134 5.03184 3.58598 4.90704L9.13598 1.8237C9.34868 1.70554 9.45504 1.64645 9.56766 1.62329C9.66735 1.60278 9.77016 1.60278 9.86984 1.62329C9.98247 1.64645 10.0888 1.70553 10.3015 1.8237L15.8515 4.90704C16.0762 5.03184 16.1885 5.09424 16.2703 5.18299M6.34375 3.37494L13.0938 7.12494" stroke="#888888" stroke-width="1.2" stroke-linecap="round" stroke-linejoin="round"/>
<path d="M13.1074 10.4862L17.2326 10.4862M17.2326 10.4862L17.2326 14.6113M17.2326 10.4862L12.2824 15.4363" stroke="#888888" stroke-width="1.2" stroke-linecap="round" stroke-linejoin="round"/>
</g>
<defs>
<clipPath id="clip0_2854_1674">
<rect width="18" height="18" fill="white" transform="translate(0.71875)"/>
</clipPath>
</defs>
</svg>
