<svg width="12" height="12" viewBox="0 0 12 12" fill="none" xmlns="http://www.w3.org/2000/svg">
<path d="M11.2124 4.5605C11.167 4.42052 11.0814 4.297 10.9663 4.20531C10.8512 4.11363 10.7117 4.05783 10.5651 4.04487L7.78116 3.80487L6.68991 1.20987C6.6331 1.07371 6.53727 0.957398 6.41448 0.875587C6.2917 0.793776 6.14746 0.750122 5.99991 0.750122C5.85237 0.750122 5.70813 0.793776 5.58534 0.875587C5.46256 0.957398 5.36673 1.07371 5.30991 1.20987L4.22194 3.80487L1.43476 4.04628C1.28759 4.05865 1.14734 4.11419 1.03161 4.20594C0.915882 4.2977 0.829818 4.42158 0.784212 4.56205C0.738606 4.70252 0.735489 4.85333 0.775251 4.99557C0.815014 5.1378 0.895886 5.26513 1.00773 5.36159L3.12226 7.2094L2.48851 9.95347C2.455 10.0971 2.46456 10.2474 2.516 10.3855C2.56744 10.5237 2.65847 10.6437 2.77772 10.7304C2.89697 10.8172 3.03914 10.8668 3.18646 10.8732C3.33378 10.8796 3.47971 10.8424 3.60601 10.7663L5.99663 9.31315L8.39241 10.7663C8.51871 10.8424 8.66464 10.8796 8.81196 10.8732C8.95928 10.8668 9.10145 10.8172 9.2207 10.7304C9.33995 10.6437 9.43098 10.5237 9.48242 10.3855C9.53386 10.2474 9.54342 10.0971 9.50991 9.95347L8.87663 7.20659L10.9907 5.36159C11.1025 5.2648 11.1832 5.13711 11.2227 4.99457C11.2621 4.85203 11.2586 4.70101 11.2124 4.5605ZM10.499 4.79487L8.38491 6.63987C8.28202 6.72937 8.20548 6.84523 8.16352 6.97499C8.12157 7.10474 8.11578 7.24348 8.14679 7.37628L8.78194 10.125L6.38804 8.6719C6.27124 8.60078 6.13713 8.56315 6.00038 8.56315C5.86363 8.56315 5.72952 8.60078 5.61273 8.6719L3.2221 10.125L3.85304 7.37815C3.88405 7.24536 3.87826 7.10662 3.8363 6.97686C3.79434 6.84711 3.7178 6.73125 3.61491 6.64175L1.49991 4.79768C1.49974 4.79628 1.49974 4.79487 1.49991 4.79347L4.28616 4.55253C4.4222 4.54054 4.55237 4.49163 4.66265 4.41109C4.77293 4.33055 4.85913 4.22143 4.91194 4.0955L5.99991 1.50378L7.08741 4.0955C7.14023 4.22143 7.22643 4.33055 7.33671 4.41109C7.44699 4.49163 7.57716 4.54054 7.71319 4.55253L10.4999 4.79347C10.4999 4.79347 10.4999 4.79628 10.4999 4.79675L10.499 4.79487Z" fill="#343330"/>
</svg>
