<svg width="20" height="21" viewBox="0 0 20 21" fill="none" xmlns="http://www.w3.org/2000/svg">
<path d="M16.875 4.65625H13.75V4.03125C13.75 3.53397 13.5525 3.05706 13.2008 2.70542C12.8492 2.35379 12.3723 2.15625 11.875 2.15625H8.125C7.62772 2.15625 7.15081 2.35379 6.79917 2.70542C6.44754 3.05706 6.25 3.53397 6.25 4.03125V4.65625H3.125C2.95924 4.65625 2.80027 4.7221 2.68306 4.83931C2.56585 4.95652 2.5 5.11549 2.5 5.28125C2.5 5.44701 2.56585 5.60598 2.68306 5.72319C2.80027 5.8404 2.95924 5.90625 3.125 5.90625H3.75V17.1562C3.75 17.4878 3.8817 17.8057 4.11612 18.0401C4.35054 18.2746 4.66848 18.4062 5 18.4062H15C15.3315 18.4062 15.6495 18.2746 15.8839 18.0401C16.1183 17.8057 16.25 17.4878 16.25 17.1562V5.90625H16.875C17.0408 5.90625 17.1997 5.8404 17.3169 5.72319C17.4342 5.60598 17.5 5.44701 17.5 5.28125C17.5 5.11549 17.4342 4.95652 17.3169 4.83931C17.1997 4.7221 17.0408 4.65625 16.875 4.65625ZM7.5 4.03125C7.5 3.86549 7.56585 3.70652 7.68306 3.58931C7.80027 3.4721 7.95924 3.40625 8.125 3.40625H11.875C12.0408 3.40625 12.1997 3.4721 12.3169 3.58931C12.4342 3.70652 12.5 3.86549 12.5 4.03125V4.65625H7.5V4.03125ZM15 17.1562H5V5.90625H15V17.1562ZM8.75 9.03125V14.0312C8.75 14.197 8.68415 14.356 8.56694 14.4732C8.44973 14.5904 8.29076 14.6562 8.125 14.6562C7.95924 14.6562 7.80027 14.5904 7.68306 14.4732C7.56585 14.356 7.5 14.197 7.5 14.0312V9.03125C7.5 8.86549 7.56585 8.70652 7.68306 8.58931C7.80027 8.4721 7.95924 8.40625 8.125 8.40625C8.29076 8.40625 8.44973 8.4721 8.56694 8.58931C8.68415 8.70652 8.75 8.86549 8.75 9.03125ZM12.5 9.03125V14.0312C12.5 14.197 12.4342 14.356 12.3169 14.4732C12.1997 14.5904 12.0408 14.6562 11.875 14.6562C11.7092 14.6562 11.5503 14.5904 11.4331 14.4732C11.3158 14.356 11.25 14.197 11.25 14.0312V9.03125C11.25 8.86549 11.3158 8.70652 11.4331 8.58931C11.5503 8.4721 11.7092 8.40625 11.875 8.40625C12.0408 8.40625 12.1997 8.4721 12.3169 8.58931C12.4342 8.70652 12.5 8.86549 12.5 9.03125Z" fill="#343330"/>
</svg>
