<svg width="24" height="8" viewBox="0 0 24 8" fill="none" xmlns="http://www.w3.org/2000/svg">
<path fill-rule="evenodd" clip-rule="evenodd" d="M6.00025 7.82434H3.9232L2.36567 1.70749C2.29174 1.42611 2.13477 1.17736 1.90388 1.06012C1.32765 0.765495 0.692687 0.531016 0 0.412757V0.177258H3.34596C3.80775 0.177258 4.1541 0.531016 4.21182 0.941864L5.01996 5.35415L7.09599 0.177258H9.11532L6.00025 7.82434ZM10.2698 7.82434H8.30822L9.92348 0.177258H11.8851L10.2698 7.82434ZM14.4229 2.29484C14.4806 1.88297 14.827 1.64747 15.231 1.64747C15.866 1.58834 16.5577 1.7066 17.1349 2.00021L17.4813 0.353758C16.904 0.118259 16.269 0 15.6928 0C13.7889 0 12.4036 1.05923 12.4036 2.52932C12.4036 3.64768 13.3849 4.2349 14.0776 4.58865C14.827 4.94139 15.1156 5.17689 15.0579 5.52963C15.0579 6.05874 14.4806 6.29424 13.9044 6.29424C13.2117 6.29424 12.519 6.11787 11.8851 5.82324L11.5387 7.47071C12.2314 7.76432 12.9808 7.88258 13.6735 7.88258C15.8083 7.94069 17.1349 6.88247 17.1349 5.29413C17.1349 3.29392 14.4229 3.17668 14.4229 2.29484ZM24 7.82434L22.4425 0.177258H20.7695C20.4231 0.177258 20.0768 0.412757 19.9614 0.765495L17.0772 7.82434H19.0965L19.4996 6.70699H21.9807L22.2116 7.82434H24ZM21.0581 2.23543L21.6343 5.11748H20.0191L21.0581 2.23543Z" fill="#172B85"/>
</svg>
