<svg width="62" height="50" viewBox="0 0 62 50" fill="none" xmlns="http://www.w3.org/2000/svg">
<path d="M4.5625 1.5625L13 8.125C18.4375 5.5 24.5312 4 31 4C42.25 4 52.4688 8.5 60.0625 15.7188C61.1875 16.8438 61.2812 18.8125 60.1562 19.9375C58.9375 21.1562 57.0625 21.25 55.8438 20.0312C49.375 13.8438 40.6562 10 31 10C26.5 10 22.2812 10.8438 18.3438 12.3438L27.25 19.2812C28.4688 19.0938 29.6875 19 31 19C37.8438 19 44.0312 21.625 48.8125 25.75C50.0312 26.875 50.2188 28.75 49.0938 30.0625C47.9688 31.2812 46.0938 31.375 44.875 30.25C42.1562 27.9062 38.7812 26.2188 35.125 25.4688L60.0625 45.0625C61.0938 45.8125 61.2812 47.2188 60.4375 48.1562C59.6875 49.1875 58.2812 49.375 57.3438 48.5312L1.84375 5.03125C0.8125 4.28125 0.625 2.875 1.46875 1.9375C2.21875 0.90625 3.625 0.71875 4.5625 1.5625ZM9.71875 16.9375C8.40625 17.875 7.1875 18.9062 6.0625 20.0312C4.84375 21.25 2.96875 21.1562 1.75 19.9375C0.625 18.8125 0.71875 16.8438 1.84375 15.7188C2.875 14.7812 3.8125 13.9375 4.84375 13.0938L9.71875 16.9375ZM22.375 26.875C20.4062 27.7188 18.625 28.9375 17.0312 30.25C15.8125 31.375 13.9375 31.2812 12.8125 30.0625C11.7812 28.75 11.875 26.875 13.0938 25.75C14.3125 24.7188 15.7188 23.6875 17.2188 22.8438L22.375 26.875ZM31 34C31.0938 34 31.2812 34.0938 31.4688 34.0938L36.625 38.125C36.8125 38.7812 37 39.3438 37 40C37 43.375 34.2812 46 31 46C27.625 46 25 43.375 25 40C25 36.7188 27.625 34 31 34Z" fill="#F47721"/>
</svg>
